name analog
datacolumns 19
datarows 38
range 0.51 0.5285
endheader
time	ground_force_vx	ground_force_vy	ground_force_vz	ground_force_px	ground_force_py	ground_force_pz	l_ground_force_vx	l_ground_force_vy	l_ground_force_vz	l_ground_force_px	l_ground_force_py	l_ground_force_pz	ground_torque_x	ground_torque_y	ground_torque_z	l_ground_torque_x	l_ground_torque_y	l_ground_torque_z
0.51	-0.0	-0.0	-0.0	35.79581451416016	-1.43934428691864	-34.4246826171875	7.3692450523376465	-101.05842590332033	-678.559326171875	-0.0	-0.0	-0.0	-0.0	-0.0	-0.0	190174.125	-116564.65625	15399.8349609375
0.5105000000000001	-0.0	-0.0	-0.0	40.72272872924805	0.0355893671512603	-40.8426399230957	6.7311530113220215	-101.85232543945312	-677.5911865234375	-0.0	-0.0	-0.0	-0.0	-0.0	-0.0	189880.859375	-116256.2109375	15314.6767578125
0.511	-0.0	-0.0	-0.0	31.14096450805664	1.0830963850021362	-44.45247650146485	5.755044460296631	-102.60372924804688	-677.1265258789062	-0.0	-0.0	-0.0	-0.0	-0.0	-0.0	189606.6875	-115884.9453125	15222.955078125
0.5115000000000001	-0.0	-0.0	-0.0	12.413509368896484	2.205756902694702	-52.510162353515625	4.753078937530518	-103.00867462158205	-675.1466674804688	-0.0	-0.0	-0.0	-0.0	-0.0	-0.0	189301.21875	-115598.625	15056.11328125
0.512	-0.0	-0.0	-0.0	-1.919752836227417	3.8110158443450928	-64.99701690673828	4.04995584487915	-103.00719451904295	-673.5643310546875	-0.0	-0.0	-0.0	-0.0	-0.0	-0.0	188801.78125	-115225.1640625	14948.251953125
0.5125	-0.0	-0.0	-0.0	-12.24442195892334	5.707047462463379	-78.28099822998047	3.118048667907715	-103.01177978515624	-671.48486328125	-0.0	-0.0	-0.0	-0.0	-0.0	-0.0	188215.0	-114682.359375	14768.794921875
0.513	-0.0	-0.0	-0.0	-22.764080047607425	7.530344009399414	-90.52364349365234	1.96314001083374	-102.75503540039062	-667.8900756835938	-0.0	-0.0	-0.0	-0.0	-0.0	-0.0	187350.890625	-114107.2890625	14565.0078125
0.5135	-0.0	-0.0	-0.0	-31.94227409362793	8.585411071777344	-101.8497543334961	0.4124718308448791	-102.4795913696289	-665.491943359375	-0.0	-0.0	-0.0	-0.0	-0.0	-0.0	186277.671875	-113555.2421875	14152.158203125
0.514	-0.0	-0.0	-0.0	-37.039676666259766	7.626232147216797	-114.82345581054688	-0.8850146532058716	-102.26214599609376	-661.0821533203125	-0.0	-0.0	-0.0	-0.0	-0.0	-0.0	185474.234375	-112656.6640625	13910.830078125
0.5145	-0.0	-0.0	-0.0	-32.92723846435547	7.675509452819824	-134.21578979492188	-2.618881225585937	-101.40768432617188	-656.0481567382812	-0.0	-0.0	-0.0	-0.0	-0.0	-0.0	183989.484375	-111552.5234375	13518.91015625
0.515	-0.0	-0.0	-0.0	-22.151020050048828	5.814290523529053	-157.60595703125	-4.080728530883789	-100.88713073730467	-650.486328125	-0.0	-0.0	-0.0	-0.0	-0.0	-0.0	182222.65625	-110373.703125	13067.9833984375
0.5155	-0.0	-0.0	-0.0	-11.769070625305176	4.633103370666504	-183.7956695556641	-5.295071125030518	-99.7730712890625	-642.3186645507812	-0.0	-0.0	-0.0	-0.0	-0.0	-0.0	180014.484375	-108735.21875	12687.0439453125
0.516	-0.0	-0.0	-0.0	-3.75121021270752	3.994353294372559	-216.63287353515625	-6.4615912437438965	-98.33006286621094	-631.3170166015625	-0.0	-0.0	-0.0	-0.0	-0.0	-0.0	177215.296875	-106902.40625	12220.9267578125
0.5165	-0.0	-0.0	-0.0	0.8501894474029541	6.791116237640381	-249.7718811035156	-7.747648239135742	-96.62277221679688	-617.2932739257812	-0.0	-0.0	-0.0	-0.0	-0.0	-0.0	173265.25	-104592.0625	11646.85546875
0.517	-0.0	-0.0	-0.0	2.415236234664917	10.786888122558594	-287.1456604003906	-8.768816947937012	-94.5412826538086	-601.9632568359375	-0.0	-0.0	-0.0	-0.0	-0.0	-0.0	169029.8125	-101875.7265625	11177.537109375
0.5175	-0.0	-0.0	-0.0	1.4588159322738647	14.79769802093506	-320.46685791015625	-9.787474632263184	-92.3553237915039	-582.9579467773438	-0.0	-0.0	-0.0	-0.0	-0.0	-0.0	164137.0	-98956.0859375	10638.275390625
0.518	-0.0	-0.0	-0.0	0.0075788423418998	19.25379943847656	-348.4200744628906	-10.423810958862305	-88.98330688476562	-564.281005859375	-0.0	-0.0	-0.0	-0.0	-0.0	-0.0	158782.75	-95625.640625	9953.853515625
0.5185	-0.0	-0.0	-0.0	-0.5801874399185181	23.11505889892578	-370.5522155761719	-11.858394622802734	-85.45094299316406	-544.0335693359375	-0.0	-0.0	-0.0	-0.0	-0.0	-0.0	153000.25	-92127.8671875	9180.3388671875
0.519	-0.0	-0.0	-0.0	-0.7437690496444702	26.57650184631348	-385.5318603515625	-13.313912391662598	-81.67547607421875	-521.6014404296875	-0.0	-0.0	-0.0	-0.0	-0.0	-0.0	147021.609375	-88545.1015625	8325.1142578125
0.5195	-0.0	-0.0	-0.0	-1.546836018562317	29.47286796569824	-395.560302734375	-14.253047943115234	-77.10456085205078	-498.4712219238281	-0.0	-0.0	-0.0	-0.0	-0.0	-0.0	140745.234375	-84875.359375	7584.0185546875
0.52	-0.0	-0.0	-0.0	-3.2933928966522217	32.54763412475586	-405.45166015625	-14.969950675964355	-72.67412567138672	-475.806884765625	-0.0	-0.0	-0.0	-0.0	-0.0	-0.0	134608.953125	-81222.1953125	6593.41796875
0.5205	-0.0	-0.0	-0.0	-4.356472015380859	35.87492370605469	-410.92474365234375	-15.243301391601562	-67.81646728515625	-453.49169921875	-0.0	-0.0	-0.0	-0.0	-0.0	-0.0	128306.484375	-77457.3203125	5919.72021484375
0.521	-0.0	-0.0	-0.0	-5.664819240570068	40.00392150878906	-417.1043395996094	-15.516578674316406	-63.02528762817383	-431.8718872070313	-0.0	-0.0	-0.0	-0.0	-0.0	-0.0	122403.7109375	-73982.515625	5186.490234375
0.5215	-0.0	-0.0	-0.0	-6.006975173950195	45.03989791870117	-425.1119995117188	-15.11116886138916	-57.94017028808594	-411.068603515625	-0.0	-0.0	-0.0	-0.0	-0.0	-0.0	116320.796875	-70539.3515625	4404.6220703125
0.522	-0.0	-0.0	-0.0	-5.836601734161377	49.61497497558594	-431.7317504882813	-14.83707046508789	-53.30312347412109	-389.1097717285156	-0.0	-0.0	-0.0	-0.0	-0.0	-0.0	110624.75	-67048.015625	4003.1328125
0.5225	-0.0	-0.0	-0.0	-5.457159996032715	53.670631408691406	-438.0617980957031	-14.03181266784668	-48.74073791503906	-368.3092651367188	-0.0	-0.0	-0.0	-0.0	-0.0	-0.0	105054.0703125	-63664.8515625	3562.315673828125
0.523	-0.0	-0.0	-0.0	-4.766482353210449	57.2588005065918	-445.2686767578125	-13.29305934906006	-44.2204475402832	-348.4588623046875	-0.0	-0.0	-0.0	-0.0	-0.0	-0.0	99159.5078125	-60501.3984375	3143.635009765625
0.5235	-0.0	-0.0	-0.0	-4.014472961425781	60.01368713378906	-453.4830322265625	-11.975955963134766	-40.01106262207031	-329.4915771484375	-0.0	-0.0	-0.0	-0.0	-0.0	-0.0	93795.1796875	-57259.72265625	2908.471435546875
0.524	-0.0	-0.0	-0.0	-3.463215112686157	62.53159332275391	-462.8922729492188	-10.869993209838867	-36.156005859375	-310.1762390136719	-0.0	-0.0	-0.0	-0.0	-0.0	-0.0	88887.6796875	-54036.78515625	2702.24462890625
0.5245	-0.0	-0.0	-0.0	-2.825992584228516	64.27735900878906	-471.8423461914063	-9.435912132263184	-32.121551513671875	-292.3648681640625	-0.0	-0.0	-0.0	-0.0	-0.0	-0.0	83837.2109375	-51107.24609375	2481.6708984375
0.525	-0.0	-0.0	-0.0	-1.8763458728790283	65.2464828491211	-479.825439453125	-8.222627639770508	-28.575729370117188	-275.526611328125	-0.0	-0.0	-0.0	-0.0	-0.0	-0.0	78997.4296875	-48346.75	2401.838623046875
0.5255	-0.0	-0.0	-0.0	-1.1919139623641968	66.22572326660156	-487.4794616699219	-7.215808391571045	-25.673494338989254	-258.737060546875	-0.0	-0.0	-0.0	-0.0	-0.0	-0.0	74774.640625	-45632.2421875	2243.48095703125
0.526	-0.0	-0.0	-0.0	-1.3812456130981443	66.26844024658203	-496.1495056152344	-5.677473068237305	-22.964744567871094	-244.7001037597656	-0.0	-0.0	-0.0	-0.0	-0.0	-0.0	70160.5546875	-43169.8046875	2085.411376953125
0.5265	-0.0	-0.0	-0.0	-1.0247793197631836	65.45114135742188	-503.5613098144531	-4.610611915588379	-19.94913101196289	-229.4061584472656	-0.0	-0.0	-0.0	-0.0	-0.0	-0.0	66033.53125	-40813.13671875	2077.490234375
0.527	-0.0	-0.0	-0.0	-0.9819519519805908	64.7269287109375	-512.477783203125	-3.503464937210083	-17.859277725219727	-216.53884887695312	-0.0	-0.0	-0.0	-0.0	-0.0	-0.0	62387.99609375	-38508.6875	1973.488037109375
0.5275	-0.0	-0.0	-0.0	-0.5378697514533997	63.66968536376953	-517.7411499023438	-2.486668348312378	-15.40108585357666	-204.0245513916016	-0.0	-0.0	-0.0	-0.0	-0.0	-0.0	58633.80859375	-36386.9609375	2089.344970703125
0.528	-0.0	-0.0	-0.0	-0.5472168326377869	63.01715087890625	-524.2427978515625	-1.5567388534545898	-13.885960578918455	-191.954833984375	-0.0	-0.0	-0.0	-0.0	-0.0	-0.0	55143.31640625	-34368.99609375	1900.3323974609373
0.5285	-0.0	-0.0	-0.0	-0.8489807844161987	61.973419189453125	-530.884521484375	-0.8442656397819519	-12.465486526489258	-179.71673583984375	-0.0	-0.0	-0.0	-0.0	-0.0	-0.0	52062.35546875	-32474.1796875	1795.5067138671875
